<?xml version="1.0" encoding="UTF-8" standalone="no"?>
<svg
   width="107"
   height="107"
   viewBox="0 0 107 107"
   fill="none"
   version="1.1"
   id="svg555"
   xmlns="http://www.w3.org/2000/svg"
   xmlns:svg="http://www.w3.org/2000/svg">
  <defs
     id="defs559" />
  <path
     d="M 36.287,16.3077 V 2.3465 L 31.6702,4.1586 C 12.6127,12.8288 0,32.44 0,53.5356 c 0,20.976 10.8751,39.0771 31.4583,49.2264 1.1047,0.547 4.8258,1.892 4.8258,1.892 V 90.037 h -6.716 l -0.0254,3.5216 C 23.9395,90.1292 19.1151,85.5487 15.3833,80.1149 11.6515,74.6812 9.09599,68.5161 7.88294,62.0206 H 36.2841 V 55.2281 H 7.12855 c -0.0226,-0.5699 -0.0339,-1.1397 -0.0339,-1.7096 0,-0.5926 0,-1.1824 0.03673,-1.7722 H 36.2841 V 44.968 H 7.89707 c 1.22666,-6.4815 3.78723,-12.6317 7.51653,-18.0536 3.7293,-5.422 8.5445,-9.9952 14.1347,-13.4246 v 2.8179 z"
     fill="#bf181f"
     id="path547" />
  <path
     d="M 60.2785,0 53.3377,37.602 46.2534,0.0341523 V 0.00569222 c 0,0 -2.2742,0.34152578 -3.4619,0.59197778 -0.9739,0.202069 -3.248,0.72574 -3.248,0.72574 V 105.645 c 0,0 1.669,0.45 3.2255,0.766 1.1503,0.254 2.3135,0.444 3.4844,0.569 V 34.2323 l 7.1463,34.938 6.8816,-34.3831 V 107 c 0,0 2.7583,-0.413 3.6815,-0.618 0.7627,-0.17 3.0285,-0.72 3.0285,-0.72 V 1.33195 c 0,0 -1.5846,-0.438291 -3.2565,-0.765587 C 62.153,0.25899 60.2785,0 60.2785,0 Z"
     fill="#bf181f"
     id="path549" />
  <path
     d="m 70.713,55.3914 v 44.4757 l 0.0339,4.7869 c 0,0 3.665,-1.418 6.5915,-2.856 3.8955,-1.9567 7.5529,-4.3602 10.8993,-7.1625 1.6464,-1.4036 4.9084,-4.7524 4.9084,-4.7524 h -9.9775 c -1.7875,1.3971 -3.6635,2.6758 -5.616,3.828 V 62.1287 h 21.8325 c -0.0752,0.4971 -0.1579,0.982 -0.2481,1.4546 l -0.6315,3.3318 3.3665,0.1786 0.586,0.0227 2.834,0.1106 0.563,-2.4471 c 0.364,-2.2401 0.643,-4.1371 0.886,-6.1758 L 107,55.3772 Z"
     fill="#bf181f"
     id="path551" />
  <path
     d="m 77.4811,16.3109 v -3.0476 c 4.7514,2.7892 8.9941,6.3786 12.5438,10.6126 -4.0055,6.5956 -10.0858,12.1848 -17.6938,16.2473 L 70.7666,40.959 V 51.6228 H 103.747 L 107,51.5517 c 0,0 -0.166,-3.5195 -0.527,-5.9218 -0.372,-2.4818 -1.085,-5.9075 -1.085,-5.9075 l -6.8445,0.3127 0.8062,3.9374 c 0.0507,0.3014 0.0986,0.6084 0.1437,0.9211 h -21.908 c 8.7384,-5.2025 15.5036,-12.0994 19.605,-20.034 l 0.8457,-1.6489 -1.105,-1.4954 C 96.5534,21.2064 96.3673,20.9733 96.2659,20.8624 90.8424,13.8546 83.6854,8.01528 76.0688,4.52417 74.7835,3.93569 70.713,2.3465 70.713,2.3465 l 0.031,13.9815 z"
     fill="#bf181f"
     id="path553" />
</svg>
