<svg width="393" height="107" viewBox="0 0 393 107" fill="none" xmlns="http://www.w3.org/2000/svg">
<path d="M128.872 32H125.584V15.992H128.992V26.336L136.408 15.992H139.912V32H136.504V21.272L128.872 32ZM157.468 32H154.036V25.28H146.476V32H143.068V15.992H146.476V22.28H154.036V15.992H157.468V32ZM163.215 32H159.039L165.807 23.504L159.447 15.992H163.647L168.735 22.424V15.992H172.167V22.424L177.231 15.992H181.455L175.095 23.504L181.863 32H177.687L172.839 25.592L172.167 26.408V32H168.735V26.408L168.063 25.592L163.215 32ZM194.779 32H183.451V15.992H194.779V18.992H186.859V22.376H194.611V25.376H186.859V29H194.779V32ZM211.843 32H208.411V25.28H200.851V32H197.443V15.992H200.851V22.28H208.411V15.992H211.843V32ZM226.326 32H214.998V15.992H226.326V18.992H218.406V22.376H226.158V25.376H218.406V29H226.326V32ZM232.398 32H228.99V15.992H236.478C238.158 15.992 239.47 16.488 240.414 17.48C241.374 18.456 241.854 19.68 241.854 21.152C241.854 22.608 241.374 23.832 240.414 24.824C239.454 25.816 238.142 26.312 236.478 26.312H232.398V32ZM236.022 23.312C236.71 23.312 237.27 23.12 237.702 22.736C238.15 22.336 238.374 21.808 238.374 21.152C238.374 20.496 238.15 19.976 237.702 19.592C237.27 19.192 236.71 18.992 236.022 18.992H232.398V23.312H236.022ZM258.367 32H254.935V25.28H247.375V32H243.967V15.992H247.375V22.28H254.935V15.992H258.367V32ZM269.106 32.288C266.69 32.288 264.69 31.512 263.105 29.96C261.538 28.392 260.754 26.408 260.754 24.008C260.754 21.608 261.538 19.632 263.105 18.08C264.69 16.512 266.69 15.728 269.106 15.728C271.538 15.728 273.538 16.504 275.106 18.056C276.69 19.608 277.482 21.592 277.482 24.008C277.482 26.424 276.69 28.408 275.106 29.96C273.538 31.512 271.538 32.288 269.106 32.288ZM265.578 27.776C266.474 28.768 267.65 29.264 269.106 29.264C270.562 29.264 271.738 28.768 272.634 27.776C273.53 26.784 273.978 25.528 273.978 24.008C273.978 22.488 273.53 21.232 272.634 20.24C271.738 19.248 270.562 18.752 269.106 18.752C267.65 18.752 266.474 19.248 265.578 20.24C264.698 21.232 264.258 22.488 264.258 24.008C264.258 25.528 264.698 26.784 265.578 27.776ZM284.769 27.488H279.009V24.896H284.769V27.488ZM139.984 61H136.552V47.992H128.992V61H125.584V44.992H139.984V61ZM146.547 61H143.139V44.992H150.627C152.307 44.992 153.619 45.488 154.563 46.48C155.523 47.456 156.003 48.68 156.003 50.152C156.003 51.608 155.523 52.832 154.563 53.824C153.603 54.816 152.291 55.312 150.627 55.312H146.547V61ZM150.171 52.312C150.859 52.312 151.419 52.12 151.851 51.736C152.299 51.336 152.523 50.808 152.523 50.152C152.523 49.496 152.299 48.976 151.851 48.592C151.419 48.192 150.859 47.992 150.171 47.992H146.547V52.312H150.171ZM165.699 61.288C163.283 61.288 161.283 60.512 159.699 58.96C158.131 57.392 157.347 55.408 157.347 53.008C157.347 50.608 158.131 48.632 159.699 47.08C161.283 45.512 163.283 44.728 165.699 44.728C168.131 44.728 170.131 45.504 171.699 47.056C173.283 48.608 174.075 50.592 174.075 53.008C174.075 55.424 173.283 57.408 171.699 58.96C170.131 60.512 168.131 61.288 165.699 61.288ZM162.171 56.776C163.067 57.768 164.243 58.264 165.699 58.264C167.155 58.264 168.331 57.768 169.227 56.776C170.123 55.784 170.571 54.528 170.571 53.008C170.571 51.488 170.123 50.232 169.227 49.24C168.331 48.248 167.155 47.752 165.699 47.752C164.243 47.752 163.067 48.248 162.171 49.24C161.291 50.232 160.851 51.488 160.851 53.008C160.851 54.528 161.291 55.784 162.171 56.776ZM179.755 61H176.467V44.992H179.875V55.336L187.291 44.992H190.795V61H187.387V50.272L179.755 61ZM199.447 61.288C198.023 61.288 196.719 61.048 195.535 60.568C194.351 60.088 193.455 59.472 192.847 58.72L194.623 56.44C195.151 57 195.855 57.448 196.735 57.784C197.631 58.104 198.487 58.264 199.303 58.264C200.343 58.264 201.159 58.08 201.751 57.712C202.343 57.328 202.639 56.832 202.639 56.224C202.639 54.992 201.463 54.376 199.111 54.376H195.871V51.376H199.111C200.103 51.376 200.895 51.232 201.487 50.944C202.079 50.656 202.375 50.232 202.375 49.672C202.375 49.064 202.071 48.6 201.463 48.28C200.855 47.944 200.071 47.776 199.111 47.776C197.367 47.776 195.919 48.328 194.767 49.432L193.063 47.296C193.735 46.528 194.623 45.912 195.727 45.448C196.847 44.984 198.087 44.752 199.447 44.752C201.335 44.752 202.863 45.144 204.031 45.928C205.199 46.712 205.783 47.768 205.783 49.096C205.783 50.056 205.439 50.864 204.751 51.52C204.063 52.16 203.247 52.568 202.303 52.744C203.231 52.84 204.079 53.232 204.847 53.92C205.631 54.592 206.023 55.48 206.023 56.584C206.023 57.96 205.407 59.088 204.175 59.968C202.943 60.848 201.367 61.288 199.447 61.288ZM217.288 61H208.6V44.992H217.024C218.48 44.992 219.608 45.392 220.408 46.192C221.224 46.976 221.632 47.936 221.632 49.072C221.632 50.048 221.368 50.864 220.84 51.52C220.312 52.176 219.656 52.584 218.872 52.744C219.736 52.872 220.464 53.312 221.056 54.064C221.648 54.816 221.944 55.688 221.944 56.68C221.944 57.928 221.536 58.96 220.72 59.776C219.904 60.592 218.76 61 217.288 61ZM216.28 51.4C216.856 51.4 217.312 51.24 217.648 50.92C217.984 50.6 218.152 50.184 218.152 49.672C218.152 49.16 217.976 48.744 217.624 48.424C217.288 48.088 216.84 47.92 216.28 47.92H212.008V51.4H216.28ZM216.4 58.048C217.04 58.048 217.544 57.888 217.912 57.568C218.28 57.232 218.464 56.776 218.464 56.2C218.464 55.672 218.28 55.232 217.912 54.88C217.544 54.512 217.04 54.328 216.4 54.328H212.008V58.048H216.4ZM232.098 61.288C229.682 61.288 227.682 60.512 226.098 58.96C224.53 57.392 223.746 55.408 223.746 53.008C223.746 50.608 224.53 48.632 226.098 47.08C227.682 45.512 229.682 44.728 232.098 44.728C234.53 44.728 236.53 45.504 238.098 47.056C239.682 48.608 240.474 50.592 240.474 53.008C240.474 55.424 239.682 57.408 238.098 58.96C236.53 60.512 234.53 61.288 232.098 61.288ZM228.57 56.776C229.466 57.768 230.642 58.264 232.098 58.264C233.554 58.264 234.73 57.768 235.626 56.776C236.522 55.784 236.97 54.528 236.97 53.008C236.97 51.488 236.522 50.232 235.626 49.24C234.73 48.248 233.554 47.752 232.098 47.752C230.642 47.752 229.466 48.248 228.57 49.24C227.69 50.232 227.25 51.488 227.25 53.008C227.25 54.528 227.69 55.784 228.57 56.776ZM241.085 63.952V58.264C241.693 58.184 242.165 58.024 242.501 57.784C242.853 57.544 243.173 57.056 243.461 56.32C243.749 55.584 243.973 54.536 244.133 53.176L245.069 44.992H256.445V58H257.885V63.952H254.477V61H244.493V63.952H241.085ZM247.517 53.416C247.293 55.48 246.645 57.008 245.573 58H253.013V47.992H248.141L247.517 53.416ZM267.633 61.288C265.201 61.288 263.169 60.52 261.537 58.984C259.921 57.432 259.113 55.44 259.113 53.008C259.113 50.576 259.921 48.592 261.537 47.056C263.169 45.504 265.201 44.728 267.633 44.728C270.625 44.728 272.857 46.032 274.329 48.64L271.401 50.08C271.049 49.408 270.529 48.856 269.841 48.424C269.169 47.976 268.433 47.752 267.633 47.752C266.177 47.752 264.977 48.248 264.033 49.24C263.089 50.232 262.617 51.488 262.617 53.008C262.617 54.528 263.089 55.784 264.033 56.776C264.977 57.768 266.177 58.264 267.633 58.264C268.433 58.264 269.169 58.048 269.841 57.616C270.529 57.184 271.049 56.624 271.401 55.936L274.329 57.352C272.809 59.976 270.577 61.288 267.633 61.288ZM283.485 61H280.053V47.992H275.373V44.992H288.141V47.992H283.485V61ZM299.014 61H290.326V44.992H298.75C300.206 44.992 301.334 45.392 302.134 46.192C302.95 46.976 303.358 47.936 303.358 49.072C303.358 50.048 303.094 50.864 302.566 51.52C302.038 52.176 301.382 52.584 300.598 52.744C301.462 52.872 302.19 53.312 302.782 54.064C303.374 54.816 303.67 55.688 303.67 56.68C303.67 57.928 303.262 58.96 302.446 59.776C301.63 60.592 300.486 61 299.014 61ZM298.006 51.4C298.582 51.4 299.038 51.24 299.374 50.92C299.71 50.6 299.878 50.184 299.878 49.672C299.878 49.16 299.702 48.744 299.35 48.424C299.014 48.088 298.566 47.92 298.006 47.92H293.734V51.4H298.006ZM298.126 58.048C298.766 58.048 299.27 57.888 299.638 57.568C300.006 57.232 300.19 56.776 300.19 56.2C300.19 55.672 300.006 55.232 299.638 54.88C299.27 54.512 298.766 54.328 298.126 54.328H293.734V58.048H298.126ZM317.568 61H306.24V44.992H317.568V47.992H309.648V51.376H317.4V54.376H309.648V58H317.568V61ZM334.632 61H331.2V54.28H323.64V61H320.232V44.992H323.64V51.28H331.2V44.992H334.632V61ZM352.187 61H348.755V54.28H341.195V61H337.787V44.992H341.195V51.28H348.755V44.992H352.187V61ZM355.342 44.992H358.75V50.68H362.83C364.494 50.68 365.806 51.176 366.766 52.168C367.726 53.16 368.206 54.384 368.206 55.84C368.206 57.312 367.726 58.544 366.766 59.536C365.822 60.512 364.51 61 362.83 61H355.342V44.992ZM362.374 53.68H358.75V58H362.374C363.062 58 363.622 57.808 364.054 57.424C364.502 57.024 364.726 56.496 364.726 55.84C364.726 55.184 364.502 54.664 364.054 54.28C363.622 53.88 363.062 53.68 362.374 53.68ZM372.982 61H369.55V44.992H372.982V61ZM379.442 61H376.154V44.992H379.562V55.336L386.978 44.992H390.482V61H387.074V50.272L379.442 61ZM387.53 42.136C386.49 43.544 385.09 44.248 383.33 44.248C381.586 44.248 380.178 43.544 379.106 42.136L380.45 41.008C381.154 42 382.114 42.496 383.33 42.496C384.514 42.496 385.466 42 386.186 41.008L387.53 42.136ZM138.016 92.952V90H125.584V73.992H128.992V87H136.552V73.992H139.984V87H141.424V92.952H138.016ZM154.748 90H143.42V73.992H154.748V76.992H146.828V80.376H154.58V83.376H146.828V87H154.748V90ZM171.812 90H168.38V83.28H160.82V90H157.412V73.992H160.82V80.28H168.38V73.992H171.812V90ZM182.095 90H178.663V76.992H173.983V73.992H186.751V76.992H182.095V90ZM192.344 90H188.936V73.992H196.424C198.104 73.992 199.416 74.488 200.36 75.48C201.32 76.456 201.8 77.68 201.8 79.152C201.8 80.608 201.32 81.832 200.36 82.824C199.4 83.816 198.088 84.312 196.424 84.312H192.344V90ZM195.968 81.312C196.656 81.312 197.216 81.12 197.648 80.736C198.096 80.336 198.32 79.808 198.32 79.152C198.32 78.496 198.096 77.976 197.648 77.592C197.216 77.192 196.656 76.992 195.968 76.992H192.344V81.312H195.968Z" fill="#BF181F"/>
<path d="M36.287 16.3077V2.3465L31.6702 4.1586C12.6127 12.8288 0 32.44 0 53.5356C0 74.5116 10.8751 92.6127 31.4583 102.762C32.563 103.309 36.2841 104.654 36.2841 104.654V90.037H29.5681L29.5427 93.5586C23.9395 90.1292 19.1151 85.5487 15.3833 80.1149C11.6515 74.6812 9.09599 68.5161 7.88294 62.0206H36.2841V55.2281H7.12855C7.10595 54.6582 7.09465 54.0884 7.09465 53.5185C7.09465 52.9259 7.09465 52.3361 7.13138 51.7463H36.2841V44.968H7.89707C9.12373 38.4865 11.6843 32.3363 15.4136 26.9144C19.1429 21.4924 23.9581 16.9192 29.5483 13.4898V16.3077H36.287Z" fill="#BF181F"/>
<path d="M60.2785 0L53.3377 37.602L46.2534 0.0341523V0.00569222C46.2534 0.00569222 43.9792 0.347218 42.7915 0.59767C41.8176 0.799739 39.5435 1.32341 39.5435 1.32341V105.645C39.5435 105.645 41.2125 106.095 42.769 106.411C43.9193 106.665 45.0825 106.855 46.2534 106.98V34.2323L53.3997 69.1703L60.2813 34.7872V107C60.2813 107 63.0396 106.587 63.9628 106.382C64.7255 106.212 66.9913 105.662 66.9913 105.662V1.33195C66.9913 1.33195 65.4067 0.893659 63.7348 0.566363C62.153 0.25899 60.2785 0 60.2785 0Z" fill="#BF181F"/>
<path d="M70.713 55.3914V99.8671L70.7469 104.654C70.7469 104.654 74.4119 103.236 77.3384 101.798C81.2339 99.8413 84.8913 97.4378 88.2377 94.6355C89.8841 93.2319 93.1461 89.8831 93.1461 89.8831H83.1686C81.3811 91.2802 79.5051 92.5589 77.5526 93.7111V62.1287H99.3851C99.3099 62.6258 99.2272 63.1107 99.137 63.5833L98.5055 66.9151L101.872 67.0937L102.458 67.1164L105.292 67.227L105.855 64.7799C106.219 62.5398 106.498 60.6428 106.741 58.6041L107 55.3772L70.713 55.3914Z" fill="#BF181F"/>
<path d="M77.4811 16.3109V13.2633C82.2325 16.0525 86.4752 19.6419 90.0249 23.8759C86.0194 30.4715 79.9391 36.0607 72.3311 40.1232L70.7666 40.959V51.6228H103.747L107 51.5517C107 51.5517 106.834 48.0322 106.473 45.6299C106.101 43.1481 105.388 39.7224 105.388 39.7224L98.5435 40.0351L99.3497 43.9725C99.4004 44.2739 99.4483 44.5809 99.4934 44.8936H77.5854C86.3238 39.6911 93.089 32.7942 97.1904 24.8596L98.0361 23.2107L96.9311 21.7153C96.5534 21.2064 96.3673 20.9733 96.2659 20.8624C90.8424 13.8546 83.6854 8.01528 76.0688 4.52417C74.7835 3.93569 70.713 2.3465 70.713 2.3465L70.744 16.328L77.4811 16.3109Z" fill="#BF181F"/>
</svg>
